<svg xmlns="http://www.w3.org/2000/svg" viewBox="0 0 400 400" fill="none">
  <defs>
    <linearGradient id="pg1" x1="0%" y1="0%" x2="100%" y2="100%">
      <stop offset="0%" stop-color="#b91c1c"/>
      <stop offset="50%" stop-color="#e8242a"/>
      <stop offset="100%" stop-color="#ff3b42"/>
    </linearGradient>
    <radialGradient id="pgGlow" cx="50%" cy="50%" r="50%">
      <stop offset="0%" stop-color="#e8242a" stop-opacity="0.45"/>
      <stop offset="100%" stop-color="#e8242a" stop-opacity="0"/>
    </radialGradient>
  </defs>
  <circle cx="200" cy="200" r="180" fill="url(#pgGlow)"/>
  <rect x="130" y="60" width="140" height="280" rx="24" fill="#111111" stroke="url(#pg1)" stroke-width="2"/>
  <rect x="138" y="80" width="124" height="240" rx="16" fill="#0a0a0a"/>
  <circle cx="200" cy="160" r="30" fill="url(#pg1)" opacity="0.7"/>
  <rect x="155" y="200" width="90" height="8" rx="4" fill="rgba(255,255,255,0.2)"/>
  <rect x="165" y="218" width="70" height="6" rx="3" fill="rgba(255,255,255,0.1)"/>
  <rect x="160" y="250" width="80" height="28" rx="14" fill="url(#pg1)"/>
  <circle cx="80" cy="120" r="24" fill="rgba(232,36,42,0.2)" stroke="#e8242a" stroke-width="1"/>
  <text x="72" y="126" font-size="20">💎</text>
  <circle cx="320" cy="100" r="20" fill="rgba(255,255,255,0.08)" stroke="#ffffff" stroke-width="1"/>
  <text x="313" y="106" font-size="16">🔴</text>
  <circle cx="340" cy="260" r="22" fill="rgba(232,36,42,0.15)" stroke="#ff3b42" stroke-width="1"/>
  <text x="332" y="267" font-size="18">❤️</text>
  <circle cx="60" cy="280" r="18" fill="rgba(255,255,255,0.08)" stroke="#ffffff" stroke-width="1"/>
  <text x="53" y="286" font-size="14">⭐</text>
  <circle cx="200" cy="200" r="150" fill="none" stroke="url(#pg1)" stroke-width="1" opacity="0.25" stroke-dasharray="8 12"/>
  <circle cx="200" cy="200" r="170" fill="none" stroke="url(#pg1)" stroke-width="0.5" opacity="0.12"/>
  <text x="100" y="60" fill="#ff3b42" font-size="12" opacity="0.7">✦</text>
  <text x="300" y="50" fill="#ffffff" font-size="10" opacity="0.5">✦</text>
  <text x="350" y="180" fill="#ff6b6b" font-size="14" opacity="0.55">✦</text>
</svg>