<svg xmlns="http://www.w3.org/2000/svg" viewBox="0 0 280 560" fill="none">
  <defs>
    <linearGradient id="bg2" x1="0%" y1="0%" x2="100%" y2="100%">
      <stop offset="0%" stop-color="#0f1729"/>
      <stop offset="100%" stop-color="#050505"/>
    </linearGradient>
    <linearGradient id="cardGrad" x1="0%" y1="0%" x2="100%" y2="100%">
      <stop offset="0%" stop-color="#e8242a" stop-opacity="0.2"/>
      <stop offset="100%" stop-color="#ffffff" stop-opacity="0.1"/>
    </linearGradient>
    <linearGradient id="av2" x1="0%" y1="0%" x2="100%" y2="100%">
      <stop offset="0%" stop-color="#ff3b42"/>
      <stop offset="100%" stop-color="#e8242a"/>
    </linearGradient>
  </defs>
  <rect width="280" height="560" fill="url(#bg2)"/>
  <rect x="0" y="0" width="280" height="44" fill="rgba(0,0,0,0.3)"/>
  <text x="20" y="28" fill="#94a3b8" font-family="Arial,sans-serif" font-size="12">9:41</text>
  <!-- Header -->
  <text x="20" y="72" fill="white" font-family="Arial,sans-serif" font-size="22" font-weight="bold">Discover</text>
  <rect x="200" y="52" width="60" height="32" rx="16" fill="rgba(255,255,255,0.06)" stroke="rgba(255,255,255,0.08)"/>
  <text x="218" y="73" fill="#94a3b8" font-family="Arial,sans-serif" font-size="12">🔍</text>
  <!-- Stories -->
  <circle cx="44" cy="120" r="28" fill="none" stroke="url(#av2)" stroke-width="3"/>
  <circle cx="44" cy="120" r="22" fill="url(#av2)"/>
  <text x="28" y="162" fill="#94a3b8" font-family="Arial,sans-serif" font-size="10">You</text>
  <circle cx="108" cy="120" r="28" fill="none" stroke="#ffffff" stroke-width="3"/>
  <circle cx="108" cy="120" r="22" fill="#ffffff" opacity="0.6"/>
  <text x="88" y="162" fill="#94a3b8" font-family="Arial,sans-serif" font-size="10">Alex</text>
  <circle cx="172" cy="120" r="28" fill="none" stroke="#ff3b42" stroke-width="3"/>
  <circle cx="172" cy="120" r="22" fill="#ff3b42" opacity="0.6"/>
  <text x="152" y="162" fill="#94a3b8" font-family="Arial,sans-serif" font-size="10">Luna</text>
  <circle cx="236" cy="120" r="28" fill="none" stroke="#22c55e" stroke-width="3"/>
  <circle cx="236" cy="120" r="22" fill="#22c55e" opacity="0.6"/>
  <text x="216" y="162" fill="#94a3b8" font-family="Arial,sans-serif" font-size="10">Mike</text>
  <!-- Feed card 1 -->
  <rect x="16" y="180" width="248" height="160" rx="16" fill="url(#cardGrad)" stroke="rgba(255,255,255,0.08)"/>
  <circle cx="44" cy="208" r="14" fill="url(#av2)"/>
  <text x="66" y="206" fill="white" font-family="Arial,sans-serif" font-size="12" font-weight="bold">Sarah_Live</text>
  <text x="66" y="220" fill="#64748b" font-family="Arial,sans-serif" font-size="10">2 hours ago</text>
  <rect x="32" y="232" width="216" height="90" rx="12" fill="#141414"/>
  <rect x="32" y="232" width="216" height="90" rx="12" fill="url(#av2)" opacity="0.3"/>
  <text x="48" y="280" fill="white" font-family="Arial,sans-serif" font-size="11">Just finished an amazing live session! 🎉</text>
  <!-- Feed card 2 -->
  <rect x="16" y="356" width="248" height="140" rx="16" fill="url(#cardGrad)" stroke="rgba(255,255,255,0.08)"/>
  <circle cx="44" cy="384" r="14" fill="#ffffff"/>
  <text x="66" y="382" fill="white" font-family="Arial,sans-serif" font-size="12" font-weight="bold">Mike_J</text>
  <text x="66" y="396" fill="#64748b" font-family="Arial,sans-serif" font-size="10">5 hours ago</text>
  <text x="32" y="420" fill="#e2e8f0" font-family="Arial,sans-serif" font-size="11">New friends on CRIMZO every day! 💜</text>
  <text x="32" y="448" fill="#64748b" font-family="Arial,sans-serif" font-size="10">❤️ 234  💬 45  ↗️ Share</text>
  <!-- Tab bar -->
  <rect x="0" y="510" width="280" height="50" fill="rgba(0,0,0,0.5)"/>
  <text x="30" y="542" fill="#64748b" font-size="18">🏠</text>
  <text x="90" y="542" fill="#64748b" font-size="18">🔍</text>
  <circle cx="140" cy="530" r="22" fill="url(#av2)"/>
  <text x="132" y="536" fill="white" font-size="16">+</text>
  <text x="190" y="542" fill="#ff3b42" font-size="18">💬</text>
  <text x="250" y="542" fill="#64748b" font-size="18">👤</text>
</svg>